<?xml version="1.0" encoding="UTF-8"?>
<svg id="Ebene_1" xmlns="http://www.w3.org/2000/svg" version="1.1" viewBox="0 0 83.26 45.09">
  <!-- Generator: Adobe Illustrator 29.4.0, SVG Export Plug-In . SVG Version: 2.1.0 Build 152)  -->
  <defs>
    <style>
      .st0 {
        fill: #1d1d1b;
      }
    </style>
  </defs>
  <polygon class="st0" points="44.67 2.3 44.67 17.63 44.03 17.63 44.03 2.94 5.26 2.94 5.26 41.78 44.03 41.78 44.03 27.09 44.67 27.09 44.67 42.42 4.62 42.42 4.62 2.3 44.67 2.3"/>
  <path class="st0" d="M72.01,19.13c1.27.21,1.94,1.98,1.07,3.01-.1.12-.24.14-.25.15-.03.04.33.35.39.43.73,1.06-.19,2.86-1.43,2.86h-3.48v-6.45h3.69ZM71.72,20.42c-.6-.11-1.48.08-2.11,0v1.29h2.11c.06,0,.31-.22.36-.29.23-.36.06-.93-.36-1ZM69.61,23v1.18s.1.11.11.11h1.86s.38-.17.43-.21c.34-.31.14-1.08-.22-1.08h-2.19Z"/>
  <path class="st0" d="M47.99,22.36c0,1.84-1.49,3.34-3.34,3.34s-3.34-1.49-3.34-3.34,1.49-3.34,3.34-3.34,3.34,1.49,3.34,3.34ZM46.69,22.36c0-1.12-.91-2.04-2.04-2.04s-2.04.91-2.04,2.04.91,2.04,2.04,2.04,2.04-.91,2.04-2.04Z"/>
  <path class="st0" d="M40.37,25.58h-1.43l-.5-1.29h-1.43v1.29h-1.29v-6.45h3.05c.27,0,.89.36,1.11.54,1.43,1.14,1.27,3.2-.2,4.23l.7,1.69ZM37.01,23h1.47s.43-.19.49-.23c.76-.5.8-1.67.03-2.15-.06-.03-.42-.2-.44-.2h-1.54v2.58Z"/>
  <path class="st0" d="M32.13,25.58h-1.25s-.11-.1-.11-.11v-1.18h-2.51v1.29h-1.29v-4.41c0-.14.3-.74.4-.89,1.05-1.66,3.63-1.52,4.49.23.05.1.27.74.27.8v4.26ZM28.26,23h2.47s.11-.1.11-.11v-1.36s-.12-.35-.15-.42c-.31-.65-1.18-.9-1.8-.54-.19.11-.62.6-.62.81v1.61Z"/>
  <path class="st0" d="M67.24,25.58h-1.29v-1.18s-.1-.11-.11-.11h-2.47v1.29h-1.29v-4.33c0-.95,1.28-2.02,2.19-2.11,1.27-.13,2.97.8,2.97,2.18v4.26ZM65.95,23v-1.54s-.19-.43-.23-.49c-.37-.56-1.21-.73-1.78-.37-.17.11-.58.59-.58.78v1.61h2.58Z"/>
  <path class="st0" d="M53.34,19.13v1.29h-3.12c-.16,0-.44.29-.46.47-.16,1.04,1.11.7,1.75.75,1.43.11,2.46,1.16,1.98,2.62-.2.61-.96,1.32-1.62,1.32h-3.01s-.11-.1-.11-.11v-1.15s.1-.11.11-.11h3.01c.15,0,.37-.31.39-.47.16-1.1-1.46-.68-2.11-.75-1.74-.19-2.39-2.56-.89-3.54.12-.08.57-.33.67-.33h3.4Z"/>
  <path class="st0" d="M79,19.13v1.29h-3.19c-.4,0-.68,1.12.07,1.22,1.1.15,2.16-.29,2.98.82.75,1.02.32,2.56-.88,2.99-.07.03-.41.13-.45.13h-3.12v-1.36h3.12c.37,0,.69-1.11-.21-1.22-.74-.09-1.37.15-2.11-.18-1.22-.54-1.53-2.19-.58-3.15.13-.13.75-.53.9-.53h3.48Z"/>
  <path class="st0" d="M22.6,19.13v3.08c.81-.98,1.62-2.01,2.29-3.08h1.5l-1.93,2.68,1.93,3.76h-1.4c-.15,0-1.17-2.31-1.43-2.58-.1.18-.97,1.17-.97,1.25v1.33h-1.29v-6.45h1.29Z"/>
  <polygon class="st0" points="58.29 19.13 58.29 24.22 61.51 24.22 61.51 25.58 57 25.58 57 19.13 58.29 19.13"/>
  <rect class="st0" x="33.21" y="19.13" width="1.29" height="6.45"/>
</svg>